<svg width="100" height="100" viewBox="0 0 100 100" fill="none" xmlns="http://www.w3.org/2000/svg">
<mask id="mask0_128_461" style="mask-type:alpha" maskUnits="userSpaceOnUse" x="0" y="0" width="100" height="100">
<rect width="100" height="100" fill="#D9D9D9"/>
</mask>
<g mask="url(#mask0_128_461)">
<path d="M50.0013 97.0842L36.043 83.3342H16.668V63.9592L2.91797 50.0008L16.668 36.0425V16.6675H36.043L50.0013 2.91748L63.9596 16.6675H83.3346V36.0425L97.0846 50.0008L83.3346 63.9592V83.3342H63.9596L50.0013 97.0842ZM50.0013 70.8342C55.7652 70.8342 60.6784 68.8029 64.7409 64.7404C68.8034 60.6779 70.8346 55.7647 70.8346 50.0008C70.8346 44.2369 68.8034 39.3237 64.7409 35.2612C60.6784 31.1987 55.7652 29.1675 50.0013 29.1675C44.2374 29.1675 39.3242 31.1987 35.2617 35.2612C31.1992 39.3237 29.168 44.2369 29.168 50.0008C29.168 55.7647 31.1992 60.6779 35.2617 64.7404C39.3242 68.8029 44.2374 70.8342 50.0013 70.8342ZM50.0013 62.5008C46.5291 62.5008 43.5777 61.2855 41.1471 58.855C38.7166 56.4244 37.5013 53.473 37.5013 50.0008C37.5013 46.5286 38.7166 43.5772 41.1471 41.1467C43.5777 38.7161 46.5291 37.5008 50.0013 37.5008C53.4735 37.5008 56.4249 38.7161 58.8555 41.1467C61.286 43.5772 62.5013 46.5286 62.5013 50.0008C62.5013 53.473 61.286 56.4244 58.8555 58.855C56.4249 61.2855 53.4735 62.5008 50.0013 62.5008ZM50.0013 85.4175L60.418 75.0008H75.0013V60.4175L85.418 50.0008L75.0013 39.5842V25.0008H60.418L50.0013 14.5841L39.5846 25.0008H25.0013V39.5842L14.5846 50.0008L25.0013 60.4175V75.0008H39.5846L50.0013 85.4175Z" fill="#BE7352"/>
</g>
</svg>
