<svg width="50" height="50" viewBox="0 0 50 50" fill="none" xmlns="http://www.w3.org/2000/svg">
<mask id="mask0_128_536" style="mask-type:alpha" maskUnits="userSpaceOnUse" x="0" y="0" width="50" height="50">
<rect width="50" height="50" fill="#D9D9D9"/>
</mask>
<g mask="url(#mask0_128_536)">
<path d="M43 22.8008V25.8682H35.1191L35.1914 26.4316L36.2334 34.5654L36.2891 35.002H39.333C40.3489 35.002 41.2047 35.3491 41.9268 36.0537C42.6484 36.7581 43 37.5877 43 38.5684V46.2021H6.5V38.5684C6.50005 37.5877 6.8516 36.7581 7.57324 36.0537C8.29526 35.3491 9.15106 35.002 10.167 35.002H13.2109L13.2666 34.5654L14.3086 26.4316L14.3809 25.8682H6.5V22.8008H43ZM9.66699 43.1357H39.833V38.0684H9.66699V43.1357ZM17.4834 26.3047L16.4414 34.4385L16.3691 35.002H33.0781L33.0068 34.4385L31.9648 26.3047L31.9092 25.8682H17.5391L17.4834 26.3047ZM26.333 4.5V9.81445L27.043 9.48633C27.6739 9.19464 28.3209 8.96831 28.9834 8.80664C29.6382 8.64689 30.3101 8.56641 31 8.56641C33.4769 8.56641 35.5638 9.40796 37.291 11.0938C39.0178 12.7792 39.875 14.811 39.875 17.2178C39.875 18.117 39.7436 18.9622 39.4834 19.7559C39.2472 20.4764 38.9316 21.1578 38.5371 21.8008H34.3037C34.5627 21.6197 34.8109 21.4149 35.0469 21.1846C36.1514 20.1065 36.7079 18.774 36.708 17.2178C36.708 15.6614 36.1515 14.3281 35.0469 13.25C33.9429 12.1725 32.5834 11.6338 31 11.6338C30.2836 11.6338 29.606 11.7532 28.9717 11.9971C28.3404 12.2398 27.761 12.6024 27.2344 13.0781L24.75 15.2324L22.2656 13.0781L22.2588 13.0723L22.0596 12.9121C21.5902 12.548 21.0834 12.2523 20.54 12.0273C19.9028 11.7635 19.221 11.6338 18.5 11.6338C16.9166 11.6338 15.5571 12.1725 14.4531 13.25C13.3485 14.3281 12.792 15.6614 12.792 17.2178C12.7921 18.774 13.3486 20.1065 14.4531 21.1846C14.6891 21.4149 14.9373 21.6197 15.1963 21.8008H10.9629C10.5684 21.1578 10.2528 20.4764 10.0166 19.7559C9.7564 18.9622 9.62504 18.117 9.625 17.2178C9.625 14.811 10.4822 12.7792 12.209 11.0938C13.9362 9.40796 16.0231 8.56641 18.5 8.56641C19.194 8.56641 19.87 8.6396 20.5283 8.78418C21.1788 8.92705 21.8155 9.15751 22.4385 9.47754L23.167 9.85156V4.5H26.333Z" fill="#FCFCFC" stroke="#FCFCFC"/>
</g>
</svg>
