<svg width="30" height="30" viewBox="0 0 30 30" fill="none" xmlns="http://www.w3.org/2000/svg">
<mask id="mask0_90_122" style="mask-type:alpha" maskUnits="userSpaceOnUse" x="0" y="0" width="30" height="30">
<rect x="0.5" y="0.5" width="29" height="29" fill="#D9D9D9" stroke="#BE7352"/>
</mask>
<g mask="url(#mask0_90_122)">
<path d="M20.7549 21.8174C21.133 22.0704 21.4207 22.3399 21.6279 22.623C21.8788 22.9659 22 23.3372 22 23.75C22 24.5893 21.4892 25.3526 20.1826 26.0059C18.8789 26.6577 17.1609 27 15 27C12.8391 27 11.1211 26.6577 9.81738 26.0059C8.51085 25.3526 8 24.5893 8 23.75C8 23.3585 8.11614 22.9952 8.36133 22.6484C8.55779 22.3707 8.82056 22.1128 9.1582 21.8789L10.3057 22.9531C10.0638 23.0755 9.85006 23.2294 9.68262 23.4248L9.41113 23.7412L9.6748 24.0654C9.87818 24.3156 10.1786 24.5114 10.5225 24.6719C10.8728 24.8354 11.3064 24.9799 11.8135 25.1094C12.8351 25.3702 13.8979 25.5 15 25.5C16.102 25.5 17.1691 25.3699 18.2002 25.1094C18.7124 24.98 19.1499 24.8362 19.5029 24.6729C19.8492 24.5126 20.1523 24.3166 20.3564 24.0654L20.623 23.7383L20.3447 23.4209C20.1514 23.2 19.9111 23.0289 19.6357 22.9004L20.7549 21.8174ZM15 3C15.9584 3 16.9329 3.1761 17.9248 3.5332C18.9046 3.88598 19.7856 4.41495 20.5713 5.12207C21.351 5.82379 21.9961 6.70052 22.502 7.76172C22.9955 8.79711 23.25 10.0182 23.25 11.4375C23.25 13.2667 22.5746 15.1678 21.1699 17.1484C19.8117 19.0635 17.7614 21.0561 15 23.125C12.2386 21.0561 10.1883 19.0635 8.83008 17.1484C7.42542 15.1678 6.75 13.2667 6.75 11.4375C6.75 10.0182 7.00454 8.79711 7.49805 7.76172C8.00387 6.70052 8.64902 5.82379 9.42871 5.12207C10.2144 4.41495 11.0954 3.88598 12.0752 3.5332C13.0671 3.1761 14.0416 3 15 3ZM15 4.5C13.4077 4.5 11.8941 5.09406 10.4688 6.23438C8.96932 7.43392 8.25 9.19839 8.25 11.4375C8.25 12.9596 8.80738 14.5091 9.86719 16.0771C10.9269 17.6451 12.5522 19.291 14.7197 21.0166L15.0195 21.2549L15.3281 21.0273C17.4198 19.485 19.0176 17.9201 20.1006 16.3281C21.1871 14.7309 21.75 13.0982 21.75 11.4375C21.75 9.19839 21.0307 7.43392 19.5312 6.23438C18.1059 5.09406 16.5923 4.5 15 4.5ZM15 9.25C15.5538 9.25 16.0155 9.44133 16.4121 9.83789C16.8087 10.2345 17 10.6962 17 11.25C17 11.8038 16.8087 12.2655 16.4121 12.6621C16.0155 13.0587 15.5538 13.25 15 13.25C14.4462 13.25 13.9845 13.0587 13.5879 12.6621C13.1913 12.2655 13 11.8038 13 11.25C13 10.6962 13.1913 10.2345 13.5879 9.83789C13.9845 9.44133 14.4462 9.25 15 9.25Z" fill="#212D4F" stroke="#BE7352"/>
</g>
</svg>
