<svg width="30" height="30" viewBox="0 0 30 30" fill="none" xmlns="http://www.w3.org/2000/svg">
<mask id="mask0_90_101" style="mask-type:alpha" maskUnits="userSpaceOnUse" x="0" y="0" width="30" height="30">
<rect x="0.5" y="0.5" width="29" height="29" fill="#D9D9D9" stroke="#BE7352"/>
</mask>
<g mask="url(#mask0_90_101)">
<path d="M9.5 3V5.5H20.5V3H22V5.5H23.75C24.3038 5.5 24.7655 5.69133 25.1621 6.08789C25.5587 6.48445 25.75 6.94616 25.75 7.5V25C25.75 25.5538 25.5587 26.0155 25.1621 26.4121C24.7655 26.8087 24.3038 27 23.75 27H6.25C5.69616 27 5.23445 26.8087 4.83789 26.4121C4.44133 26.0155 4.25 25.5538 4.25 25V7.5C4.25 6.94616 4.44133 6.48445 4.83789 6.08789C5.23445 5.69133 5.69616 5.5 6.25 5.5H8V3H9.5ZM5.75 25.5H24.25V12H5.75V25.5ZM18.125 16.75C18.871 16.75 19.4823 17.0019 19.9902 17.5098C20.4981 18.0177 20.75 18.629 20.75 19.375C20.75 20.121 20.4981 20.7323 19.9902 21.2402C19.4823 21.7481 18.871 22 18.125 22C17.379 22 16.7677 21.7481 16.2598 21.2402C15.7519 20.7323 15.5 20.121 15.5 19.375C15.5 18.629 15.7519 18.0177 16.2598 17.5098C16.7677 17.0019 17.379 16.75 18.125 16.75ZM5.75 10.5H24.25V7H5.75V10.5Z" fill="#212D4F" stroke="#BE7352"/>
</g>
</svg>
