<svg width="24" height="24" viewBox="0 0 24 24" fill="none" xmlns="http://www.w3.org/2000/svg">
<mask id="mask0_256_20" style="mask-type:alpha" maskUnits="userSpaceOnUse" x="-1" y="-1" width="26" height="26">
<rect x="-0.5" y="-0.5" width="25" height="25" fill="#212D4F" stroke="#BE7352"/>
</mask>
<g mask="url(#mask0_256_20)">
<path d="M12 2.5C13.3151 2.5 14.5542 2.75019 15.7119 3.25391C16.8586 3.75286 17.8613 4.42969 18.7158 5.28418C19.5703 6.13867 20.2471 7.14136 20.7461 8.28809C21.2498 9.44579 21.5 10.6849 21.5 12C21.5 13.3151 21.2498 14.5542 20.7461 15.7119C20.2471 16.8586 19.5703 17.8613 18.7158 18.7158C17.8613 19.5703 16.8586 20.2471 15.7119 20.7461C14.5542 21.2498 13.3151 21.5 12 21.5C9.57781 21.5 7.45468 20.6931 5.6543 19.0859C3.85354 17.4784 2.81618 15.4603 2.55273 13.0547L2.49219 12.5H5.53711L5.5957 12.9336C5.81302 14.5474 6.52514 15.8693 7.74023 16.9219C8.95656 17.9755 10.3688 18.5 12 18.5C13.8196 18.5 15.3464 17.8724 16.6094 16.6094C17.8724 15.3464 18.5 13.8196 18.5 12C18.5 10.1804 17.8724 8.65361 16.6094 7.39062C15.3464 6.12764 13.8196 5.5 12 5.5C10.9309 5.5 9.93713 5.74721 9.01074 6.24121C8.38359 6.57569 7.82448 6.99582 7.33008 7.5H9.5V10.5H2.5V3.5H5.5V5.06543C6.20467 4.39671 7.00432 3.84915 7.89746 3.42383C9.19012 2.80828 10.5595 2.5 12 2.5ZM13.5 6.5V11.3926L16.9072 14.7998L14.7998 16.9072L10.5 12.6074V6.5H13.5Z" fill="#212D4F" stroke="#BE7352"/>
</g>
</svg>
