<svg width="50" height="61" viewBox="0 0 50 61" fill="none" xmlns="http://www.w3.org/2000/svg">
<path d="M40.8552 5.23595C41.4118 5.70673 41.9475 6.17346 42.4471 6.70031C42.4471 6.8633 42.4471 7.02629 42.4471 7.19422C41.7561 7.59552 41.7561 7.59552 40.9044 7.93508C39.8891 7.65714 39.1727 7.15078 38.3493 6.53053C33.3041 2.961 27.4947 1.9807 21.3665 2.82814C17.6012 3.40672 13.7263 5.04059 10.8217 7.44117C10.6526 7.57424 10.4836 7.7073 10.3094 7.8444C9.4086 8.52873 9.4086 8.52873 8.76472 9.4168C8.59503 9.4168 8.42533 9.4168 8.25049 9.4168C8.17956 9.56292 8.10863 9.70904 8.03555 9.85958C7.75152 10.3768 7.44685 10.7727 7.06132 11.2227C5.43705 13.2695 3.98579 15.7932 3.36526 18.3072C3.2872 18.6094 3.2872 18.6094 3.20757 18.9178C1.88553 25.0594 3.25852 30.7053 6.77206 35.8872C7.19229 36.4688 7.62117 36.9861 8.10586 37.5233C8.50761 38.0635 8.50761 38.0635 8.47547 38.5728C8.24198 39.0694 8.00418 39.5588 7.73625 40.0391C6.33266 39.8164 5.72641 38.862 4.90796 37.8165C1.15579 32.493 -0.89053 26.2433 0.374511 19.8007C1.80278 13.1517 5.54202 7.52461 11.4775 3.75326C20.5564 -1.60885 32.5332 -1.32177 40.8552 5.23595Z" fill="white"/>
<path d="M22.3868 7.86854C23.4331 8.41205 24.3305 9.16047 25.2201 9.91073C25.416 9.73214 25.416 9.73214 25.6158 9.54995C26.9318 8.39011 27.872 7.77243 29.6875 7.61097C31.5595 7.76597 32.8825 8.41051 34.2192 9.66378C34.6791 10.2783 34.7362 10.5418 34.7174 11.2998C34.4763 11.8864 34.4763 11.8864 33.8175 12.2105C33.6106 12.2665 33.4038 12.3225 33.1907 12.3803C33.1069 12.2434 33.023 12.1065 32.9366 11.9655C32.8243 11.7866 32.7119 11.6077 32.5962 11.4233C32.4306 11.1569 32.4306 11.1569 32.2617 10.885C31.9007 10.3383 31.9007 10.3383 31.1338 9.91073C30.0091 9.74963 28.8165 9.65538 27.7863 10.1702C27.239 10.6038 26.824 11.0279 26.5057 11.6394C26.4759 11.9824 26.4598 12.3266 26.4515 12.6706C26.4442 12.8752 26.4369 13.0797 26.4294 13.2904C26.4161 13.72 26.4046 14.1496 26.3952 14.5792C26.3493 15.7655 26.2862 16.6086 25.4772 17.5663C24.7862 18.0139 24.7862 18.0139 24.1916 18.3072C23.7413 17.8747 23.8852 17.2629 23.8712 16.675C23.8628 16.3916 23.8543 16.1083 23.8456 15.8164C23.83 15.2171 23.8153 14.6177 23.8014 14.0183C23.7927 13.7337 23.7839 13.4491 23.7748 13.1559C23.7684 12.8949 23.7619 12.6339 23.7553 12.3651C23.6752 11.6187 23.5123 11.0739 23.1632 10.4046C22.0474 9.70139 20.5933 9.74402 19.3064 9.91073C18.3832 10.428 17.8971 10.9316 17.5066 11.8864C17.6922 11.9373 17.8778 11.9882 18.069 12.0407C18.9983 12.4771 19.5791 13.0033 20.0778 13.862C20.3379 14.6755 20.5221 15.4823 20.592 16.3315C20.3349 16.5785 20.3349 16.5785 19.676 16.5939C19.4692 16.5888 19.2624 16.5837 19.0493 16.5785C18.9714 16.4088 18.8935 16.2391 18.8133 16.0643C18.1682 14.7185 18.1682 14.7185 17.2013 13.5842C15.7869 13.1615 14.4461 13.205 13.0392 13.6305C12.1706 14.2462 11.6544 14.8545 11.3358 15.8376C11.2565 16.75 11.2739 17.6412 11.3358 18.5541C11.7962 18.5741 12.257 18.5885 12.7178 18.6004C12.9743 18.609 13.2308 18.6176 13.4952 18.6265C13.8263 18.5907 13.8263 18.5907 14.1641 18.5541C14.3338 18.3096 14.5035 18.0652 14.6783 17.8133C15.3532 17.767 15.3532 17.767 15.9639 17.8133C16.0621 18.2223 16.1474 18.6343 16.221 19.048C16.1361 19.1295 16.0513 19.211 15.9639 19.295C15.7865 20.4732 15.7728 21.2711 16.5263 22.243C17.1923 22.7121 17.7507 23.0095 18.5351 23.2463C18.2805 23.7352 18.026 24.2242 17.7637 24.728C16.0887 24.5022 15.3271 24.0473 14.2695 22.7794C13.8248 22.1404 13.5682 21.5258 13.3927 20.7767C11.9118 20.4507 10.8791 20.5571 9.53594 21.2706C8.46577 22.3317 8.43638 23.4553 8.44922 24.865C8.54999 25.9095 9.04511 26.4791 9.79306 27.1975C10.7529 27.2921 11.0211 27.2344 11.85 26.7036C12.541 26.6727 12.541 26.6727 13.1356 26.7036C13.3053 27.1111 13.475 27.5186 13.6498 27.9384C13.4917 28.0253 13.3336 28.1122 13.1707 28.2017C11.7531 29.0334 10.9673 29.5734 10.5644 31.1488C10.6195 32.2068 10.7223 32.7345 11.3358 33.6183C11.3036 34.2511 11.3036 34.2511 11.0786 34.8531C10.5483 35.1772 10.5483 35.1772 10.0502 35.347C8.90941 34.0828 8.47087 33.3945 8.47534 31.6736C8.47434 31.2925 8.47434 31.2925 8.47333 30.9038C8.50747 30.161 8.50747 30.161 8.67319 29.4867C8.70336 29.3017 8.73352 29.1168 8.76459 28.9262C8.19699 28.2985 8.19699 28.2985 7.47901 27.6914C6.24443 26.0445 5.95322 24.7579 6.19342 22.7523C6.62456 21.4868 7.1378 20.4329 8.33071 19.7117C9.09554 19.1201 9.09554 19.1201 9.08298 18.339C9.06332 17.7759 9.04082 17.2128 9.01568 16.6499C9.02638 15.2077 9.52217 14.2012 10.4951 13.1211C11.8558 11.869 13.3242 11.21 15.2086 11.0992C15.373 11.1145 15.5374 11.1298 15.7068 11.1455C15.7227 11.0131 15.7386 10.8806 15.755 10.7442C16.1897 9.52363 17.055 8.71594 18.1976 8.08945C19.5392 7.51081 20.9905 7.37388 22.3868 7.86854Z" fill="white"/>
<path d="M43.4753 8.18213C46.2579 9.3325 47.5893 13.1018 48.7011 15.6216C49.7584 18.2795 50.004 20.8115 49.9997 23.6476C49.9995 23.8118 49.9992 23.976 49.999 24.1452C49.9705 30.4508 47.5423 36.189 42.8479 40.66C40.8116 42.5239 38.6648 43.9665 36.081 45.0465C34.9903 45.5173 34.4603 45.9052 33.962 46.9539C33.8844 47.1156 33.8069 47.2774 33.727 47.444C33.6365 47.6598 33.6365 47.6598 33.5442 47.88C33.1907 48.6826 33.1907 48.6826 32.9335 48.9296C31.4298 49.1853 29.9057 49.2133 28.3828 49.2093C28.1777 49.2095 27.9726 49.2098 27.7614 49.21C27.3303 49.2102 26.8993 49.2097 26.4683 49.2087C25.8206 49.2074 25.1731 49.2087 24.5255 49.2103C22.0874 49.2111 19.6793 49.1394 17.2494 48.9296C16.9983 48.3829 16.7472 47.8363 16.4961 47.2896C16.4053 47.0974 16.3145 46.9051 16.2209 46.707C16.1334 46.4558 16.1334 46.4558 16.0441 46.1996C15.5139 45.4448 14.7043 45.1501 13.8747 44.7622C10.7014 43.2068 10.7014 43.2068 9.79297 42.2618C9.79297 41.5209 9.79297 41.5209 10.2269 41.0888C10.8214 40.7801 10.8214 40.7801 11.3568 40.8109C12.4624 41.1294 13.4177 41.6588 14.4211 42.2001C14.6252 42.3064 14.8294 42.4127 15.0398 42.5223C16.7766 43.4509 18.013 44.4013 18.7921 46.2131C18.7921 46.4575 18.7921 46.702 18.7921 46.9539C22.9497 46.9539 27.1073 46.9539 31.3908 46.9539C31.4757 46.5465 31.5605 46.139 31.6479 45.7192C32.5797 44.1531 33.6538 43.3478 35.355 42.6112C40.3255 40.4484 43.9723 36.4766 46.0465 31.6428C48.0532 26.2041 48.1609 20.221 45.5755 14.9309C44.53 12.8264 44.53 12.8264 43.0736 10.9912C42.704 10.4047 42.704 10.4047 42.8135 9.83846C43.0068 9.27092 43.2229 8.72758 43.4753 8.18213Z" fill="white"/>
<path d="M40.1328 9.91064C40.3874 10.0329 40.3874 10.0329 40.6471 10.1576C39.0112 12.7653 37.3398 15.3383 35.5626 17.8592C35.0359 18.608 34.5154 19.3607 33.9941 20.1129C33.7822 20.4181 33.5703 20.7233 33.3584 21.0284C32.8627 21.7424 32.3682 22.457 31.8739 23.1719C31.6693 23.4676 31.6693 23.4676 31.4605 23.7692C31.1969 24.1501 30.9335 24.5312 30.6703 24.9124C30.427 25.2638 30.182 25.6141 29.9352 25.9631C29.7169 26.2761 29.5048 26.5931 29.3016 26.9153C28.4116 28.2592 27.2115 28.9696 25.8146 29.7905C25.3484 30.0725 24.8823 30.3548 24.4165 30.6374C24.1964 30.7698 23.9764 30.9021 23.7496 31.0385C23.0947 31.4373 22.4589 31.8562 21.8293 32.2909C20.0055 33.5389 18.1054 34.6799 16.2209 35.8408C15.4847 36.2945 15.4847 36.2945 14.7485 36.7483C14.4487 36.9331 14.1487 37.1177 13.8486 37.3021C12.7979 37.9493 11.7627 38.6159 10.7371 39.2991C10.3072 39.5451 10.3072 39.5451 9.79297 39.5451C10.1959 38.4206 10.8179 37.5226 11.5124 36.5508C11.7474 36.2175 11.982 35.8841 12.2165 35.5505C12.3878 35.3071 12.3878 35.3071 12.5626 35.0588C12.9683 34.4772 13.3586 33.887 13.7461 33.2941C14.9203 31.5082 16.1514 29.7586 17.3748 28.0037C17.8582 27.3083 18.338 26.6107 18.8176 25.9129C19.1369 25.4505 19.4591 24.99 19.7824 24.5301C20.0989 24.0774 20.4112 23.6218 20.7104 23.1584C21.8819 21.4501 23.7347 20.4096 25.4771 19.2949C25.6955 19.1544 25.9138 19.0138 26.1388 18.869C28.4862 17.3608 30.8493 15.8758 33.2117 14.3895C36.847 12.348 36.847 12.348 40.1328 9.91064ZM32.115 17.2652C31.8988 17.4113 31.6827 17.5573 31.4599 17.7078C31.1155 17.9433 31.1155 17.9433 30.7641 18.1836C30.532 18.3413 30.2999 18.4989 30.0607 18.6614C29.389 19.1183 28.7186 19.5769 28.0483 20.0358C27.7283 20.2532 27.4082 20.4706 27.0881 20.6879C25.8504 21.4435 25.8504 21.4435 24.9629 22.5053C25.6417 22.6683 26.3205 22.8313 27.0198 22.9992C27.1895 23.7327 27.3592 24.4661 27.5341 25.2218C28.4398 24.3918 29.1794 23.5527 29.8833 22.5593C30.074 22.2903 30.2648 22.0213 30.4613 21.7442C30.5585 21.6055 30.6557 21.4668 30.7559 21.324C31.0534 20.9 31.3538 20.4779 31.6545 20.056C32.838 18.3983 32.838 18.3983 33.7049 16.5784C32.9904 16.5784 32.6967 16.8701 32.115 17.2652ZM22.1346 24.7279C21.69 25.3193 21.2586 25.9144 20.8329 26.5183C20.7062 26.6972 20.5794 26.876 20.4488 27.0603C20.1904 27.4254 19.9325 27.7908 19.6749 28.1564C19.3447 28.6247 19.0125 29.0915 18.6796 29.558C18.4993 29.813 18.319 30.0679 18.1332 30.3307C17.9738 30.5557 17.8144 30.7808 17.6501 31.0127C17.2636 31.6203 16.9871 32.2091 16.7351 32.8774C18.0529 32.4597 19.1309 31.7189 20.2705 30.9789C20.4761 30.8464 20.6817 30.7139 20.8936 30.5774C22.2944 29.668 23.6613 28.7295 24.9629 27.6913C24.4898 27.1531 24.4898 27.1531 23.8219 27.0431C22.9211 26.5788 22.8188 26.048 22.5153 25.1427C22.4745 25.0058 22.4337 24.8689 22.3917 24.7279C22.3069 24.7279 22.222 24.7279 22.1346 24.7279Z" fill="white"/>
<path d="M40.1329 14.1089C40.3026 14.1089 40.4723 14.1089 40.6471 14.1089C41.4649 16.0553 41.8933 17.5155 41.1614 19.5419C41.3046 19.5928 41.4477 19.6437 41.5953 19.6962C42.8224 20.397 43.5588 21.4681 43.9897 22.7523C44.2139 24.9871 44.0032 26.5015 42.5594 28.2779C42.3526 28.4918 42.1458 28.7057 41.9327 28.9261C41.763 28.9261 41.5933 28.9261 41.4185 28.9261C41.4589 29.0547 41.4994 29.1834 41.541 29.3159C41.9161 30.9828 42.0634 32.994 41.1292 34.498C40.1044 35.7929 38.9861 36.6956 37.3046 37.0756C36.9083 37.0969 36.5119 37.1174 36.1154 37.1374C35.5215 37.175 35.5215 37.175 34.9906 37.3226C34.4022 37.9952 34.4022 37.9952 33.9621 38.8043C32.9608 39.7985 31.8929 40.4405 30.4528 40.6159C28.4381 40.6437 27.3829 40.3229 25.879 38.9895C25.6801 38.7756 25.6801 38.7756 25.4772 38.5573C24.8389 38.8298 24.3553 39.1231 23.8059 39.5452C22.4425 40.5928 21.3606 40.6527 19.6338 40.6285C18.1427 40.4593 17.2272 39.8003 16.221 38.7734C15.9639 38.3104 15.9639 38.3104 15.9639 37.5695C16.6388 37.2454 16.6388 37.2454 17.5066 37.0756C17.8905 37.3722 18.2732 37.6719 18.6295 37.9988C19.4233 38.588 20.114 38.5573 21.1062 38.5573C22.1463 38.2308 22.9024 37.7727 23.4906 36.8634C23.7575 36.1081 23.757 35.3858 23.7899 34.5906C23.8746 32.7092 23.8746 32.7092 24.5452 32.0594C25.2201 31.6426 25.2201 31.6426 25.9914 31.3957C26.0059 31.8116 26.0059 31.8116 26.0206 32.2359C25.978 35.1803 25.978 35.1803 27.0199 37.8165C28.187 38.4813 29.3877 38.6769 30.716 38.4184C31.8073 38.0028 32.4082 37.5909 32.9336 36.5817C33.0619 35.3494 33.0846 34.8434 32.4033 33.7726C31.516 33.011 30.9951 32.8464 29.8482 32.6304C29.8372 32.219 29.8378 31.8071 29.8482 31.3957C30.1053 31.1487 30.1053 31.1487 30.5734 31.1265C31.9563 31.2143 32.8212 31.4833 33.8315 32.4086C34.5022 33.2197 34.8867 34.1308 35.2477 35.1C36.7477 35.0372 37.7527 34.9484 38.8473 33.8652C39.5622 32.8353 39.6958 31.8929 39.5062 30.6702C39.4346 30.4181 39.4346 30.4181 39.3615 30.1609C38.5131 30.0794 37.6646 29.9979 36.7904 29.9139C36.6631 30.2807 36.6631 30.2807 36.5333 30.6548C36.109 30.5733 35.6848 30.4918 35.2477 30.4079C35.2596 30.2261 35.2715 30.0443 35.2838 29.857C35.3546 28.3486 35.3546 28.3486 34.8459 26.9505C34.0674 26.337 33.364 26.0472 32.4194 25.7157C32.5042 25.3083 32.5891 24.9008 32.6765 24.481C33.5152 24.2203 33.8959 24.2102 34.7334 24.5118C35.5478 25.0007 36.1406 25.5336 36.7904 26.2096C36.9601 26.3726 37.1298 26.5356 37.3046 26.7035C37.4653 27.2283 37.4653 27.2283 37.5617 27.6914C39.3608 27.7821 39.3608 27.7821 40.9043 26.9505C41.8659 25.8949 42.0236 24.9287 42.005 23.5655C41.8913 22.6746 41.5302 22.1675 40.9043 21.5175C40.2792 21.2121 40.2792 21.2121 39.6187 21.2706C39.2707 21.5108 38.9279 21.758 38.5902 22.0114C37.9153 22.0886 37.9153 22.0886 37.3046 22.0114C37.0501 21.7669 37.0501 21.7669 36.7904 21.5175C36.8064 21.039 36.8064 21.039 37.0475 20.5297C38.1219 19.7888 38.1219 19.7888 38.8473 19.7888C39.3807 18.476 39.5778 17.3053 39.1687 15.9302C39.1044 15.3437 39.1044 15.3437 39.5705 14.6491C39.7561 14.4708 39.9417 14.2926 40.1329 14.1089Z" fill="white"/>
<path d="M18.9164 50.3713C19.3683 50.3677 19.3683 50.3677 19.8292 50.3641C20.3213 50.3625 20.3213 50.3625 20.8234 50.3609C21.1579 50.3595 21.4924 50.3581 21.8371 50.3566C22.5465 50.354 23.2559 50.3526 23.9653 50.3517C24.8746 50.3504 25.7838 50.3445 26.6931 50.3374C27.5595 50.3317 28.4258 50.3312 29.2922 50.33C29.6192 50.327 29.9462 50.3239 30.2832 50.3208C30.586 50.3215 30.8888 50.3223 31.2008 50.323C31.4678 50.3221 31.7348 50.3212 32.0099 50.3203C32.6769 50.4111 32.6769 50.4111 33.1578 50.7474C33.4482 51.1519 33.4482 51.1519 33.4 51.7847C33.1911 52.3867 33.1911 52.3867 32.6769 52.8806C32.0541 52.945 32.0541 52.945 31.2618 52.9484C30.9657 52.9508 30.6697 52.9531 30.3647 52.9556C30.0436 52.9553 29.7224 52.9551 29.3916 52.9549C28.8989 52.9565 28.8989 52.9565 28.3963 52.9581C27.7005 52.9595 27.0048 52.9599 26.309 52.9586C25.4173 52.9571 24.5257 52.9613 23.6339 52.967C22.7838 52.9716 21.9336 52.9706 21.0835 52.9703C20.7629 52.9726 20.4423 52.9749 20.112 52.9772C19.8151 52.9757 19.5183 52.9741 19.2124 52.9726C18.9508 52.9727 18.6891 52.9729 18.4195 52.973C17.7641 52.8806 17.7641 52.8806 17.2838 52.5527C16.9927 52.1397 16.9927 52.1397 17.057 51.368C17.3748 50.198 17.7246 50.3788 18.9164 50.3713Z" fill="white"/>
<path d="M18.1407 54.0545C18.4075 54.0548 18.6743 54.0552 18.9492 54.0555C19.2512 54.0548 19.5532 54.054 19.8644 54.0532C20.192 54.055 20.5195 54.0568 20.857 54.0586C21.3592 54.0588 21.3592 54.0588 21.8714 54.0589C22.5804 54.0593 23.2893 54.0614 23.9983 54.0647C24.9079 54.0689 25.8174 54.0698 26.727 54.0696C27.5933 54.0697 28.4596 54.0719 29.3258 54.074C29.8171 54.0744 29.8171 54.0744 30.3184 54.0749C30.6204 54.0764 30.9224 54.078 31.2336 54.0796C31.6338 54.0811 31.6338 54.0811 32.0421 54.0825C32.6764 54.1155 32.6764 54.1155 33.1906 54.3625C33.2015 54.8563 33.2011 55.3504 33.1906 55.8442C32.7362 56.2806 32.0842 56.1227 31.4686 56.1231C31.1555 56.1239 30.8423 56.1247 30.5197 56.1255C30.1753 56.125 29.8309 56.1245 29.4865 56.1239C29.1359 56.1241 28.7852 56.1244 28.4345 56.1247C27.6988 56.125 26.963 56.1245 26.2272 56.1233C25.2821 56.1219 24.3371 56.1227 23.392 56.1242C22.6677 56.1251 21.9433 56.1248 21.219 56.1242C20.8704 56.124 20.5219 56.1242 20.1733 56.1248C19.6869 56.1254 19.2006 56.1243 18.7142 56.1231C18.2983 56.1228 18.2983 56.1228 17.8739 56.1225C17.2493 56.0911 17.2493 56.0911 16.9922 55.8442C16.944 55.2422 16.944 55.2422 16.9922 54.6094C17.5064 54.1155 17.5064 54.1155 18.1407 54.0545Z" fill="white"/>
<path d="M20.5918 57.5728C23.5615 57.5728 26.5312 57.5728 29.5909 57.5728C29.0487 58.8746 28.5352 59.6958 27.1985 60.3182C25.7898 60.7614 24.1782 60.8272 22.7893 60.2941C21.8929 59.7759 21.093 59.2162 20.5918 58.3136C20.5918 58.0691 20.5918 57.8246 20.5918 57.5728Z" fill="white"/>
</svg>
