<svg width="50" height="35" viewBox="0 0 50 35" fill="none" xmlns="http://www.w3.org/2000/svg">
<g opacity="0.5">
<path d="M40.8552 2.95646C41.4118 3.22229 41.9475 3.48583 42.4471 3.78331C42.4471 3.87534 42.4471 3.96738 42.4471 4.0622C41.7561 4.28879 41.7561 4.28879 40.9044 4.48052C39.8891 4.32358 39.1727 4.03767 38.3493 3.68745C33.3041 1.67192 27.4947 1.1184 21.3665 1.5969C17.6012 1.92359 13.7263 2.84616 10.8217 4.20164C10.6526 4.27677 10.4836 4.35191 10.3094 4.42932C9.4086 4.81573 9.4086 4.81573 8.76472 5.31717C8.59503 5.31717 8.42533 5.31717 8.25049 5.31717C8.17956 5.39968 8.10863 5.48218 8.03555 5.56719C7.75152 5.85924 7.44685 6.08279 7.06132 6.33684C5.43705 7.4926 3.98579 8.91759 3.36526 10.3371C3.2872 10.5078 3.2872 10.5078 3.20757 10.6819C1.88553 14.1497 3.25852 17.3377 6.77206 20.2636C7.19229 20.592 7.62117 20.8841 8.10586 21.1874C8.50761 21.4924 8.50761 21.4924 8.47547 21.78C8.24198 22.0604 8.00418 22.3368 7.73625 22.608C6.33266 22.4822 5.72641 21.9433 4.90796 21.353C1.15579 18.3471 -0.89053 14.8182 0.374511 11.1804C1.80278 7.42609 5.54202 4.24875 11.4775 2.11927C20.5564 -0.908436 32.5332 -0.746335 40.8552 2.95646Z" fill="#747C8F"/>
<path d="M22.3868 4.44263C23.4331 4.74952 24.3305 5.17212 25.2201 5.59575C25.416 5.49491 25.416 5.49491 25.6158 5.39204C26.9318 4.73714 27.872 4.38836 29.6875 4.2972C31.5595 4.38472 32.8825 4.74865 34.2192 5.45631C34.6791 5.8033 34.7362 5.95206 34.7174 6.38012C34.4763 6.71129 34.4763 6.71129 33.8175 6.89431C33.6106 6.92594 33.4038 6.95758 33.1907 6.99017C33.1069 6.91288 33.023 6.83559 32.9366 6.75595C32.8243 6.65494 32.7119 6.55392 32.5962 6.44984C32.4306 6.29939 32.4306 6.29939 32.2617 6.1459C31.9007 5.8372 31.9007 5.8372 31.1338 5.59575C30.0091 5.50479 28.8165 5.45157 27.7863 5.74228C27.239 5.98707 26.824 6.22656 26.5057 6.57185C26.4759 6.76552 26.4598 6.95984 26.4515 7.15413C26.4442 7.26962 26.4369 7.38511 26.4294 7.50409C26.4161 7.74664 26.4046 7.98921 26.3952 8.23181C26.3493 8.90161 26.2862 9.37768 25.4772 9.91846C24.7862 10.1712 24.7862 10.1712 24.1916 10.3368C23.7413 10.0926 23.8852 9.74714 23.8712 9.41516C23.8628 9.25518 23.8543 9.0952 23.8456 8.93038C23.83 8.59195 23.8153 8.25352 23.8014 7.91507C23.7927 7.75437 23.7839 7.59367 23.7748 7.42811C23.7684 7.28076 23.7619 7.13341 23.7553 6.98159C23.6752 6.56013 23.5123 6.25255 23.1632 5.87464C22.0474 5.47755 20.5933 5.50162 19.3064 5.59575C18.3832 5.88782 17.8971 6.17217 17.5066 6.71129C17.6922 6.74005 17.8778 6.76881 18.069 6.79844C18.9983 7.04482 19.5791 7.34197 20.0778 7.82683C20.3379 8.28617 20.5221 8.74175 20.592 9.22125C20.3349 9.36069 20.3349 9.36069 19.676 9.3694C19.4692 9.36653 19.2624 9.36365 19.0493 9.36069C18.9714 9.26488 18.8935 9.16908 18.8133 9.07037C18.1682 8.31046 18.1682 8.31046 17.2013 7.66995C15.7869 7.43132 14.4461 7.45588 13.0392 7.6961C12.1706 8.04379 11.6544 8.38724 11.3358 8.94236C11.2565 9.45755 11.2739 9.96072 11.3358 10.4762C11.7962 10.4875 12.257 10.4956 12.7178 10.5024C12.9743 10.5072 13.2308 10.5121 13.4952 10.5171C13.8263 10.4969 13.8263 10.4969 14.1641 10.4762C14.3338 10.3382 14.5035 10.2001 14.6783 10.0579C15.3532 10.0318 15.3532 10.0318 15.9639 10.0579C16.0621 10.2888 16.1474 10.5215 16.221 10.7551C16.1361 10.8011 16.0513 10.8471 15.9639 10.8946C15.7865 11.5598 15.7728 12.0104 16.5263 12.5591C17.1923 12.824 17.7507 12.9919 18.5351 13.1256C18.2805 13.4017 18.026 13.6778 17.7637 13.9623C16.0887 13.8348 15.3271 13.5779 14.2695 12.862C13.8248 12.5012 13.5682 12.1541 13.3927 11.7312C11.9118 11.5471 10.8791 11.6072 9.53594 12.0101C8.46577 12.6092 8.43638 13.2436 8.44922 14.0396C8.54999 14.6294 9.04511 14.9511 9.79306 15.3567C10.7529 15.4101 11.0211 15.3775 11.85 15.0778C12.541 15.0604 12.541 15.0604 13.1356 15.0778C13.3053 15.3079 13.475 15.538 13.6498 15.775C13.4917 15.8241 13.3336 15.8732 13.1707 15.9237C11.7531 16.3933 10.9673 16.6982 10.5644 17.5878C10.6195 18.1852 10.7223 18.4831 11.3358 18.9822C11.3036 19.3395 11.3036 19.3395 11.0786 19.6794C10.5483 19.8624 10.5483 19.8624 10.0502 19.9583C8.90941 19.2444 8.47087 18.8558 8.47534 17.8841C8.47434 17.6689 8.47434 17.6689 8.47333 17.4494C8.50747 17.03 8.50747 17.03 8.67319 16.6493C8.70336 16.5448 8.73352 16.4404 8.76459 16.3328C8.19699 15.9784 8.19699 15.9784 7.47901 15.6356C6.24443 14.7057 5.95322 13.9792 6.19342 12.8467C6.62456 12.1322 7.1378 11.5371 8.33071 11.1299C9.09554 10.7958 9.09554 10.7958 9.08298 10.3548C9.06332 10.0368 9.04082 9.71886 9.01568 9.401C9.02638 8.58669 9.52217 8.01834 10.4951 7.4085C11.8558 6.70148 13.3242 6.32939 15.2086 6.26682C15.373 6.27545 15.5374 6.28407 15.7068 6.29296C15.7227 6.21819 15.7386 6.14341 15.755 6.06637C16.1897 5.37718 17.055 4.92112 18.1976 4.56737C19.5392 4.24064 20.9905 4.16333 22.3868 4.44263Z" fill="#747C8F"/>
<path d="M43.4753 4.62012C46.2579 5.26967 47.5893 7.39798 48.7011 8.82081C49.7584 10.3216 50.004 11.7513 49.9997 13.3527C49.9995 13.4454 49.9992 13.5381 49.999 13.6336C49.9705 17.1941 47.5423 20.4341 42.8479 22.9587C40.8116 24.0111 38.6648 24.8257 36.081 25.4355C34.9903 25.7013 34.4603 25.9204 33.962 26.5125C33.8844 26.6038 33.8069 26.6951 33.727 26.7892C33.6365 26.9111 33.6365 26.9111 33.5442 27.0354C33.1907 27.4886 33.1907 27.4886 32.9335 27.6281C31.4298 27.7725 29.9057 27.7883 28.3828 27.786C28.1777 27.7861 27.9726 27.7863 27.7614 27.7864C27.3303 27.7865 26.8993 27.7863 26.4683 27.7857C25.8206 27.7849 25.1731 27.7857 24.5255 27.7866C22.0874 27.787 19.6793 27.7466 17.2494 27.6281C16.9983 27.3194 16.7472 27.0107 16.4961 26.7021C16.4053 26.5935 16.3145 26.4849 16.2209 26.3731C16.1334 26.2313 16.1334 26.2313 16.0441 26.0866C15.5139 25.6604 14.7043 25.494 13.8747 25.275C10.7014 24.3967 10.7014 24.3967 9.79297 23.8631C9.79297 23.4448 9.79297 23.4448 10.2269 23.2008C10.8214 23.0265 10.8214 23.0265 11.3568 23.0439C12.4624 23.2237 13.4177 23.5226 14.4211 23.8283C14.6252 23.8883 14.8294 23.9483 15.0398 24.0102C16.7766 24.5345 18.013 25.0712 18.7921 26.0942C18.7921 26.2322 18.7921 26.3703 18.7921 26.5125C22.9497 26.5125 27.1073 26.5125 31.3908 26.5125C31.4757 26.2824 31.5605 26.0524 31.6479 25.8153C32.5797 24.931 33.6538 24.4763 35.355 24.0604C40.3255 22.8392 43.9723 20.5965 46.0465 17.8671C48.0532 14.7962 48.1609 11.4178 45.5755 8.43081C44.53 7.24247 44.53 7.24247 43.0736 6.20627C42.704 5.8751 42.704 5.8751 42.8135 5.55536C43.0068 5.2349 43.2229 4.9281 43.4753 4.62012Z" fill="#747C8F"/>
<path d="M40.1328 5.5957C40.3874 5.66473 40.3874 5.66473 40.6471 5.73515C39.0112 7.20757 37.3398 8.66043 35.5626 10.0839C35.0359 10.5067 34.5154 10.9316 33.9941 11.3564C33.7822 11.5287 33.5703 11.701 33.3584 11.8733C32.8627 12.2765 32.3682 12.68 31.8739 13.0836C31.6693 13.2506 31.6693 13.2506 31.4605 13.4209C31.1969 13.636 30.9335 13.8512 30.6703 14.0664C30.427 14.2648 30.182 14.4626 29.9352 14.6597C29.7169 14.8364 29.5048 15.0154 29.3016 15.1973C28.4116 15.9562 27.2115 16.3573 25.8146 16.8208C25.3484 16.98 24.8823 17.1394 24.4165 17.299C24.1964 17.3738 23.9764 17.4485 23.7496 17.5255C23.0947 17.7507 22.4589 17.9872 21.8293 18.2326C20.0055 18.9374 18.1054 19.5816 16.2209 20.2371C15.4847 20.4933 15.4847 20.4933 14.7485 20.7495C14.4487 20.8538 14.1487 20.9581 13.8486 21.0622C12.7979 21.4276 11.7627 21.8041 10.7371 22.1898C10.3072 22.3287 10.3072 22.3287 9.79297 22.3287C10.1959 21.6938 10.8179 21.1867 11.5124 20.638C11.7474 20.4498 11.982 20.2615 12.2165 20.0732C12.3878 19.9358 12.3878 19.9358 12.5626 19.7956C12.9683 19.4671 13.3586 19.1339 13.7461 18.7991C14.9203 17.7907 16.1514 16.8028 17.3748 15.8119C17.8582 15.4192 18.338 15.0253 18.8176 14.6313C19.1369 14.3702 19.4591 14.1102 19.7824 13.8506C20.0989 13.5949 20.4112 13.3377 20.7104 13.076C21.8819 12.1114 23.7347 11.5239 25.4771 10.8945C25.6955 10.8151 25.9138 10.7358 26.1388 10.654C28.4862 9.80243 30.8493 8.96389 33.2117 8.12466C36.847 6.97196 36.847 6.97196 40.1328 5.5957ZM32.115 9.74846C31.8988 9.83092 31.6827 9.91338 31.4599 9.99834C31.1155 10.1313 31.1155 10.1313 30.7641 10.267C30.532 10.356 30.2999 10.4451 30.0607 10.5368C29.389 10.7948 28.7186 11.0537 28.0483 11.3128C27.7283 11.4356 27.4082 11.5583 27.0881 11.681C25.8504 12.1077 25.8504 12.1077 24.9629 12.7072C25.6417 12.7993 26.3205 12.8913 27.0198 12.9861C27.1895 13.4003 27.3592 13.8144 27.5341 14.2411C28.4398 13.7724 29.1794 13.2987 29.8833 12.7377C30.074 12.5859 30.2648 12.434 30.4613 12.2775C30.5585 12.1992 30.6557 12.1209 30.7559 12.0402C31.0534 11.8008 31.3538 11.5625 31.6545 11.3243C32.838 10.3883 32.838 10.3883 33.7049 9.36064C32.9904 9.36064 32.6967 9.52537 32.115 9.74846ZM22.1346 13.9622C21.69 14.2962 21.2586 14.6322 20.8329 14.9732C20.7062 15.0742 20.5794 15.1752 20.4488 15.2792C20.1904 15.4854 19.9325 15.6917 19.6749 15.8981C19.3447 16.1625 19.0125 16.4261 18.6796 16.6895C18.4993 16.8335 18.319 16.9775 18.1332 17.1258C17.9738 17.2529 17.8144 17.38 17.6501 17.5109C17.2636 17.854 16.9871 18.1865 16.7351 18.5638C18.0529 18.328 19.1309 17.9097 20.2705 17.4919C20.4761 17.417 20.6817 17.3422 20.8936 17.2651C22.2944 16.7516 23.6613 16.2217 24.9629 15.6355C24.4898 15.3316 24.4898 15.3316 23.8219 15.2695C22.9211 15.0073 22.8188 14.7076 22.5153 14.1964C22.4745 14.1192 22.4337 14.0419 22.3917 13.9622C22.3069 13.9622 22.222 13.9622 22.1346 13.9622Z" fill="#747C8F"/>
<path d="M40.1329 7.9668C40.3026 7.9668 40.4723 7.9668 40.6471 7.9668C41.4649 9.06586 41.8933 9.89035 41.1614 11.0345C41.3046 11.0633 41.4477 11.092 41.5953 11.1217C42.8224 11.5174 43.5588 12.1221 43.9897 12.8473C44.2139 14.1092 44.0032 14.9642 42.5594 15.9673C42.3526 16.0881 42.1458 16.2089 41.9327 16.3333C41.763 16.3333 41.5933 16.3333 41.4185 16.3333C41.4589 16.4059 41.4994 16.4786 41.541 16.5534C41.9161 17.4946 42.0634 18.6302 41.1292 19.4795C40.1044 20.2106 38.9861 20.7203 37.3046 20.9349C36.9083 20.9469 36.5119 20.9585 36.1154 20.9698C35.5215 20.991 35.5215 20.991 34.9906 21.0743C34.4022 21.4542 34.4022 21.4542 33.9621 21.911C32.9608 22.4723 31.8929 22.8349 30.4528 22.9339C28.4381 22.9496 27.3829 22.7685 25.879 22.0156C25.6801 21.8948 25.6801 21.8948 25.4772 21.7716C24.8389 21.9254 24.3553 22.091 23.8059 22.3293C22.4425 22.9209 21.3606 22.9547 19.6338 22.941C18.1427 22.8455 17.2272 22.4734 16.221 21.8936C15.9639 21.6321 15.9639 21.6321 15.9639 21.2138C16.6388 21.0308 16.6388 21.0308 17.5066 20.9349C17.8905 21.1024 18.2732 21.2716 18.6295 21.4562C19.4233 21.7889 20.114 21.7716 21.1062 21.7716C22.1463 21.5872 22.9024 21.3285 23.4906 20.8151C23.7575 20.3886 23.757 19.9807 23.7899 19.5318C23.8746 18.4694 23.8746 18.4694 24.5452 18.1025C25.2201 17.8672 25.2201 17.8672 25.9914 17.7277C26.0059 17.9626 26.0059 17.9626 26.0206 18.2022C25.978 19.8647 25.978 19.8647 27.0199 21.3532C28.187 21.7286 29.3877 21.8391 30.716 21.6931C31.8073 21.4584 32.4082 21.2259 32.9336 20.656C33.0619 19.9602 33.0846 19.6745 32.4033 19.0699C31.516 18.6398 30.9951 18.5469 29.8482 18.4249C29.8372 18.1926 29.8378 17.9601 29.8482 17.7277C30.1053 17.5883 30.1053 17.5883 30.5734 17.5758C31.9563 17.6253 32.8212 17.7772 33.8315 18.2997C34.5022 18.7577 34.8867 19.2721 35.2477 19.8194C36.7477 19.7839 37.7527 19.7338 38.8473 19.1222C39.5622 18.5406 39.6958 18.0085 39.5062 17.3181C39.4346 17.1758 39.4346 17.1758 39.3615 17.0305C38.5131 16.9845 37.6646 16.9385 36.7904 16.8911C36.6631 17.0982 36.6631 17.0982 36.5333 17.3094C36.109 17.2634 35.6848 17.2174 35.2477 17.17C35.2596 17.0673 35.2715 16.9647 35.2838 16.8589C35.3546 16.0072 35.3546 16.0072 34.8459 15.2178C34.0674 14.8714 33.364 14.7077 32.4194 14.5206C32.5042 14.2905 32.5891 14.0604 32.6765 13.8234C33.5152 13.6762 33.8959 13.6705 34.7334 13.8408C35.5478 14.1168 36.1406 14.4177 36.7904 14.7995C36.9601 14.8915 37.1298 14.9835 37.3046 15.0783C37.4653 15.3747 37.4653 15.3747 37.5617 15.6361C39.3608 15.6874 39.3608 15.6874 40.9043 15.2178C41.8659 14.6217 42.0236 14.0762 42.005 13.3064C41.8913 12.8034 41.5302 12.5171 40.9043 12.1501C40.2792 11.9776 40.2792 11.9776 39.6187 12.0106C39.2707 12.1463 38.9279 12.2859 38.5902 12.4289C37.9153 12.4725 37.9153 12.4725 37.3046 12.4289C37.0501 12.2909 37.0501 12.2909 36.7904 12.1501C36.8064 11.8799 36.8064 11.8799 37.0475 11.5923C38.1219 11.174 38.1219 11.174 38.8473 11.174C39.3807 10.4327 39.5778 9.77163 39.1687 8.99518C39.1044 8.66401 39.1044 8.66401 39.5705 8.27183C39.7561 8.17117 39.9417 8.07051 40.1329 7.9668Z" fill="#747C8F"/>
<path d="M18.9164 28.4419C19.3683 28.4399 19.3683 28.4399 19.8292 28.4378C20.3213 28.4369 20.3213 28.4369 20.8234 28.436C21.1579 28.4352 21.4924 28.4344 21.8371 28.4336C22.5465 28.4321 23.2559 28.4313 23.9653 28.4308C24.8746 28.4301 25.7838 28.4267 26.6931 28.4227C27.5595 28.4195 28.4258 28.4193 29.2922 28.4186C29.6192 28.4169 29.9462 28.4151 30.2832 28.4134C30.586 28.4138 30.8888 28.4142 31.2008 28.4146C31.4678 28.4141 31.7348 28.4136 32.0099 28.4131C32.6769 28.4643 32.6769 28.4643 33.1578 28.6543C33.4482 28.8827 33.4482 28.8827 33.4 29.24C33.1911 29.5799 33.1911 29.5799 32.6769 29.8588C32.0541 29.8951 32.0541 29.8951 31.2618 29.897C30.9657 29.8984 30.6697 29.8997 30.3647 29.9011C30.0436 29.9009 29.7224 29.9008 29.3916 29.9007C28.8989 29.9016 28.8989 29.9016 28.3963 29.9025C27.7005 29.9033 27.0048 29.9035 26.309 29.9028C25.4173 29.902 24.5257 29.9043 23.6339 29.9076C22.7838 29.9101 21.9336 29.9096 21.0835 29.9094C20.7629 29.9107 20.4423 29.912 20.112 29.9133C19.8151 29.9124 19.5183 29.9116 19.2124 29.9107C18.9508 29.9108 18.6891 29.9108 18.4195 29.9109C17.7641 29.8588 17.7641 29.8588 17.2838 29.6736C16.9927 29.4404 16.9927 29.4404 17.057 29.0047C17.3748 28.344 17.7246 28.4461 18.9164 28.4419Z" fill="#747C8F"/>
<path d="M18.1407 30.5222C18.4075 30.5224 18.6743 30.5226 18.9492 30.5228C19.2512 30.5224 19.5532 30.5219 19.8644 30.5215C20.192 30.5225 20.5195 30.5235 20.857 30.5245C21.3592 30.5246 21.3592 30.5246 21.8714 30.5247C22.5804 30.5249 23.2893 30.5261 23.9983 30.528C24.9079 30.5303 25.8174 30.5309 26.727 30.5308C27.5933 30.5308 28.4596 30.532 29.3258 30.5332C29.8171 30.5335 29.8171 30.5335 30.3184 30.5337C30.6204 30.5346 30.9224 30.5355 31.2336 30.5364C31.6338 30.5372 31.6338 30.5372 32.0421 30.538C32.6764 30.5567 32.6764 30.5567 33.1906 30.6961C33.2015 30.9749 33.2011 31.2539 33.1906 31.5328C32.7362 31.7792 32.0842 31.69 31.4686 31.6902C31.1555 31.6907 30.8423 31.6911 30.5197 31.6916C30.1753 31.6913 29.8309 31.691 29.4865 31.6907C29.1359 31.6908 28.7852 31.6909 28.4345 31.6911C27.6988 31.6913 26.963 31.691 26.2272 31.6904C25.2821 31.6896 24.3371 31.69 23.392 31.6909C22.6677 31.6914 21.9433 31.6912 21.219 31.6909C20.8704 31.6908 20.5219 31.6909 20.1733 31.6912C19.6869 31.6916 19.2006 31.6909 18.7142 31.6902C18.2983 31.6901 18.2983 31.6901 17.8739 31.6899C17.2493 31.6722 17.2493 31.6722 16.9922 31.5328C16.944 31.1929 16.944 31.1929 16.9922 30.8355C17.5064 30.5567 17.5064 30.5567 18.1407 30.5222Z" fill="#747C8F"/>
<path d="M20.5918 32.5088C23.5615 32.5088 26.5312 32.5088 29.5909 32.5088C29.0487 33.2439 28.5352 33.7076 27.1985 34.059C25.7898 34.3092 24.1782 34.3464 22.7893 34.0454C21.8929 33.7528 21.093 33.4368 20.5918 32.9271C20.5918 32.7891 20.5918 32.651 20.5918 32.5088Z" fill="#747C8F"/>
</g>
</svg>
