<svg width="40" height="49" viewBox="0 0 40 49" fill="none" xmlns="http://www.w3.org/2000/svg">
<path d="M32.6841 4.18876C33.1294 4.56538 33.558 4.93877 33.9577 5.36025C33.9577 5.49064 33.9577 5.62103 33.9577 5.75537C33.4049 6.07641 33.4049 6.07641 32.7235 6.34806C31.9113 6.12571 31.3381 5.72062 30.6794 5.22442C26.6433 2.3688 21.9957 1.58456 17.0932 2.26252C14.0809 2.72537 10.9811 4.03247 8.65733 5.95294C8.5221 6.05939 8.38687 6.16584 8.24755 6.27552C7.52688 6.82299 7.52688 6.82299 7.01178 7.53344C6.87602 7.53344 6.74026 7.53344 6.60039 7.53344C6.54365 7.65034 6.48691 7.76723 6.42844 7.88767C6.20122 8.30145 5.95748 8.61818 5.64906 8.97812C4.34964 10.6156 3.18863 12.6346 2.69221 14.6457C2.62976 14.8875 2.62976 14.8875 2.56606 15.1342C1.50842 20.0475 2.60682 24.5642 5.41765 28.7098C5.75383 29.1751 6.09694 29.5889 6.48469 30.0186C6.80608 30.4508 6.80608 30.4508 6.78037 30.8583C6.59359 31.2555 6.40334 31.647 6.189 32.0313C5.06613 31.8531 4.58112 31.0896 3.92637 30.2532C0.924632 25.9944 -0.712424 20.9946 0.299609 15.8406C1.44222 10.5214 4.43361 6.01969 9.18201 3.00261C16.4451 -1.28708 26.0266 -1.05742 32.6841 4.18876Z" fill="#013E7F"/>
<path d="M17.909 6.29485C18.7461 6.72966 19.464 7.3284 20.1757 7.92861C20.3324 7.78574 20.3324 7.78574 20.4923 7.63998C21.5451 6.71212 22.2972 6.21797 23.7496 6.0888C25.2472 6.2128 26.3056 6.72843 27.375 7.73105C27.7429 8.22266 27.7885 8.43344 27.7735 9.0399C27.5807 9.50912 27.5807 9.50912 27.0536 9.76842C26.8881 9.81324 26.7227 9.85806 26.5522 9.90424C26.4851 9.79473 26.418 9.68523 26.3489 9.5724C26.259 9.42927 26.1691 9.28615 26.0765 9.13868C25.9441 8.92552 25.9441 8.92552 25.809 8.70806C25.5201 8.2707 25.5201 8.2707 24.9067 7.92861C24.0069 7.79972 23.0528 7.72433 22.2286 8.13621C21.7908 8.48304 21.4588 8.82234 21.2042 9.31155C21.1803 9.58595 21.1675 9.86126 21.1608 10.1365C21.1549 10.3002 21.1491 10.4638 21.1431 10.6324C21.1325 10.976 21.1233 11.3197 21.1158 11.6634C21.079 12.6124 21.0286 13.2869 20.3814 14.0531C19.8286 14.4112 19.8286 14.4112 19.3529 14.6458C18.9927 14.2998 19.1077 13.8103 19.0966 13.34C19.0898 13.1133 19.0831 12.8867 19.0761 12.6532C19.0636 12.1737 19.0518 11.6942 19.0408 11.2146C19.0337 10.987 19.0267 10.7593 19.0195 10.5247C19.0143 10.3159 19.0092 10.1072 19.0039 9.89209C18.9397 9.29495 18.8094 8.85917 18.5301 8.32374C17.6376 7.76114 16.4743 7.79524 15.4447 7.92861C14.7062 8.34241 14.3173 8.74529 14.0049 9.50912C14.1534 9.54986 14.3018 9.59061 14.4548 9.63259C15.1982 9.98167 15.6629 10.4027 16.0618 11.0896C16.2699 11.7404 16.4173 12.3859 16.4732 13.0653C16.2675 13.2628 16.2675 13.2628 15.7404 13.2752C15.575 13.2711 15.4095 13.267 15.239 13.2628C15.1767 13.1271 15.1144 12.9913 15.0502 12.8515C14.5342 11.7748 14.5342 11.7748 13.7606 10.8674C12.6291 10.5293 11.5565 10.5641 10.4309 10.9044C9.73607 11.397 9.32311 11.8836 9.06822 12.6701C9.00481 13.4001 9.01872 14.1129 9.06822 14.8433C9.43661 14.8593 9.8052 14.8708 10.1738 14.8804C10.3791 14.8872 10.5843 14.8941 10.7957 14.9012C11.0606 14.8726 11.0606 14.8726 11.3309 14.8433C11.4666 14.6477 11.6024 14.4521 11.7422 14.2506C12.2822 14.2136 12.2822 14.2136 12.7707 14.2506C12.8493 14.5778 12.9176 14.9074 12.9764 15.2385C12.9085 15.3036 12.8406 15.3688 12.7707 15.436C12.6288 16.3786 12.6178 17.0169 13.2207 17.7944C13.7534 18.1697 14.2002 18.4076 14.8277 18.597C14.624 18.9882 14.4204 19.3794 14.2106 19.7824C12.8706 19.6018 12.2613 19.2379 11.4152 18.2235C11.0594 17.7123 10.8541 17.2206 10.7138 16.6214C9.52903 16.3606 8.70292 16.4457 7.62836 17.0165C6.77223 17.8653 6.74872 18.7642 6.75899 19.892C6.8396 20.7276 7.2357 21.1833 7.83406 21.758C8.60191 21.8337 8.81651 21.7875 9.47961 21.3629C10.0324 21.3382 10.0324 21.3382 10.5081 21.3629C10.6438 21.6889 10.7796 22.0149 10.9195 22.3507C10.793 22.4203 10.6665 22.4898 10.5362 22.5614C9.40213 23.2268 8.77343 23.6587 8.45114 24.9191C8.4952 25.7654 8.57744 26.1876 9.06822 26.8947C9.04251 27.4009 9.04251 27.4009 8.86253 27.8825C8.43828 28.1418 8.43828 28.1418 8.03975 28.2776C7.12714 27.2662 6.7763 26.7156 6.77988 25.3389C6.77908 25.034 6.77908 25.034 6.77827 24.723C6.80559 24.1288 6.80559 24.1288 6.93817 23.5894C6.96229 23.4414 6.98642 23.2934 7.01128 23.141C6.5572 22.6388 6.5572 22.6388 5.98281 22.1532C4.99516 20.8356 4.76218 19.8064 4.95434 18.2019C5.29926 17.1895 5.70985 16.3464 6.66417 15.7694C7.27604 15.2961 7.27604 15.2961 7.26599 14.6712C7.25026 14.2207 7.23227 13.7703 7.21216 13.3199C7.22072 12.1662 7.61734 11.361 8.3957 10.4969C9.48427 9.49521 10.659 8.96803 12.1665 8.87938C12.298 8.89161 12.4295 8.90383 12.565 8.91643C12.5777 8.81048 12.5905 8.70454 12.6036 8.59539C12.9514 7.61893 13.6436 6.97277 14.5577 6.47158C15.631 6.00867 16.792 5.89913 17.909 6.29485Z" fill="#013E7F"/>
<path d="M34.7809 6.54565C37.0069 7.46595 38.072 10.4814 38.9614 12.4972C39.8073 14.6235 40.0038 16.6491 40.0003 18.9181C40.0002 19.0494 40 19.1808 39.9998 19.3161C39.977 24.3606 38.0344 28.9512 34.2789 32.5279C32.6498 34.0191 30.9324 35.1731 28.8654 36.0372C27.9928 36.4138 27.5688 36.7241 27.1702 37.5631C27.1081 37.6925 27.0461 37.8218 26.9822 37.9551C26.9098 38.1278 26.9098 38.1278 26.8359 38.3039C26.5531 38.946 26.5531 38.946 26.3474 39.1436C25.1444 39.3482 23.9252 39.3706 22.7068 39.3674C22.5427 39.3676 22.3787 39.3678 22.2097 39.368C21.8649 39.3681 21.52 39.3677 21.1752 39.3669C20.6571 39.3659 20.1391 39.3669 19.621 39.3682C17.6705 39.3689 15.744 39.3115 13.8001 39.1436C13.5992 38.7063 13.3983 38.269 13.1975 37.8316C13.1248 37.6778 13.0522 37.524 12.9773 37.3655C12.9073 37.1646 12.9073 37.1646 12.8359 36.9596C12.4117 36.3558 11.7641 36.12 11.1004 35.8097C8.56171 34.5654 8.56171 34.5654 7.83496 33.8094C7.83496 33.2167 7.83496 33.2167 8.18207 32.871C8.65774 32.624 8.65774 32.624 9.086 32.6487C9.97051 32.9035 10.7348 33.327 11.5375 33.76C11.7008 33.8451 11.8641 33.9301 12.0324 34.0178C13.4219 34.7607 14.411 35.521 15.0342 36.9704C15.0342 37.166 15.0342 37.3616 15.0342 37.5631C18.3603 37.5631 21.6864 37.5631 25.1132 37.5631C25.1811 37.2371 25.249 36.9111 25.3189 36.5753C26.0643 35.3224 26.9236 34.6782 28.2846 34.0889C32.261 32.3587 35.1785 29.1813 36.8378 25.3142C38.4431 20.9633 38.5293 16.1767 36.461 11.9447C35.6246 10.261 35.6246 10.261 34.4595 8.79294C34.1638 8.32372 34.1638 8.32372 34.2514 7.87072C34.406 7.41668 34.5789 6.98202 34.7809 6.54565Z" fill="#013E7F"/>
<path d="M32.2719 8C32.4755 8.09779 32.4755 8.09779 32.6833 8.19756C31.3746 10.2837 30.0375 12.3421 28.6157 14.3589C28.1944 14.9579 27.7779 15.56 27.3609 16.1618C27.1914 16.406 27.0219 16.6501 26.8523 16.8942C26.4558 17.4654 26.0602 18.0371 25.6648 18.609C25.5011 18.8455 25.5011 18.8455 25.334 19.0868C25.1231 19.3916 24.9124 19.6964 24.7019 20.0014C24.5072 20.2825 24.3112 20.5627 24.1138 20.842C23.9392 21.0923 23.7695 21.346 23.6069 21.6037C22.8949 22.6788 21.9348 23.2472 20.8173 23.9038C20.4443 24.1295 20.0715 24.3553 19.6988 24.5814C19.5228 24.6873 19.3467 24.7932 19.1653 24.9023C18.6414 25.2213 18.1328 25.5564 17.629 25.9042C16.1701 26.9026 14.6499 27.8154 13.1423 28.7441C12.5534 29.1071 12.5534 29.1071 11.9644 29.4701C11.7246 29.6179 11.4846 29.7656 11.2445 29.9132C10.4039 30.4309 9.57576 30.9642 8.75528 31.5108C8.41139 31.7076 8.41139 31.7076 8 31.7076C8.32232 30.8079 8.81998 30.0896 9.37558 29.3121C9.56352 29.0455 9.75126 28.7787 9.93883 28.5119C10.0759 28.3172 10.0759 28.3172 10.2157 28.1186C10.5402 27.6532 10.8525 27.1811 11.1625 26.7068C12.1019 25.2781 13.0868 23.8784 14.0655 22.4744C14.4522 21.9181 14.836 21.36 15.2197 20.8018C15.4752 20.4319 15.7329 20.0635 15.9915 19.6956C16.2447 19.3334 16.4946 18.9689 16.734 18.5982C17.6712 17.2316 19.1534 16.3992 20.5473 15.5074C20.722 15.395 20.8967 15.2825 21.0766 15.1667C22.9546 13.9601 24.845 12.7721 26.735 11.5831C29.6433 9.9499 29.6433 9.9499 32.2719 8ZM25.8576 13.8837C25.6847 14.0005 25.5117 14.1173 25.3336 14.2377C25.058 14.4261 25.058 14.4261 24.7769 14.6184C24.5912 14.7445 24.4055 14.8706 24.2142 15.0006C23.6769 15.3661 23.1405 15.733 22.6043 16.1001C22.3482 16.274 22.0922 16.4479 21.8361 16.6218C20.846 17.2263 20.846 17.2263 20.1359 18.0757C20.679 18.2061 21.222 18.3365 21.7815 18.4709C21.9173 19.0576 22.053 19.6444 22.1929 20.2489C22.9174 19.5849 23.5092 18.9136 24.0722 18.1189C24.2248 17.9037 24.3774 17.6885 24.5347 17.4668C24.6124 17.3559 24.6902 17.2449 24.7703 17.1306C25.0084 16.7915 25.2487 16.4538 25.4892 16.1163C26.436 14.7901 26.436 14.7901 27.1295 13.3342C26.5579 13.3342 26.323 13.5676 25.8576 13.8837ZM17.8733 19.8538C17.5176 20.3269 17.1725 20.803 16.832 21.2861C16.7306 21.4292 16.6292 21.5723 16.5247 21.7197C16.318 22.0118 16.1116 22.3041 15.9056 22.5966C15.6414 22.9712 15.3757 23.3447 15.1093 23.7179C14.9651 23.9218 14.8208 24.1258 14.6722 24.336C14.5447 24.5161 14.4171 24.6961 14.2857 24.8816C13.9765 25.3677 13.7553 25.8388 13.5537 26.3734C14.608 26.0392 15.4703 25.4466 16.382 24.8546C16.5465 24.7486 16.711 24.6426 16.8805 24.5334C18.0011 23.8059 19.0947 23.0551 20.1359 22.2246C19.7575 21.794 19.7575 21.794 19.2232 21.706C18.5025 21.3345 18.4207 20.9099 18.1778 20.1856C18.1452 20.0761 18.1126 19.9666 18.079 19.8538C18.0111 19.8538 17.9432 19.8538 17.8733 19.8538Z" fill="#013E7F"/>
<path d="M25.8576 13.8837L25.3336 14.2377L24.7769 14.6184L24.2142 15.0006C23.6769 15.3661 23.1405 15.733 22.6043 16.1001C22.3482 16.274 22.0922 16.4479 21.8361 16.6218C20.846 17.2263 20.846 17.2263 20.1359 18.0757L21.7815 18.4709L22.1929 20.2489C22.9174 19.5849 23.5092 18.9136 24.0722 18.1189L24.5347 17.4668L24.7703 17.1306C25.0084 16.7915 25.2487 16.4538 25.4892 16.1163C26.436 14.7901 26.436 14.7901 27.1295 13.3342C26.5579 13.3342 26.323 13.5676 25.8576 13.8837Z" fill="#B86844"/>
<path d="M32.1067 11.2871C32.2425 11.2871 32.3782 11.2871 32.5181 11.2871C33.1723 12.8443 33.5151 14.0124 32.9295 15.6335C33.044 15.6742 33.1586 15.715 33.2766 15.757C34.2583 16.3176 34.8474 17.1745 35.1921 18.2018C35.3715 19.9897 35.2029 21.2012 34.0479 22.6223C33.8825 22.7934 33.717 22.9646 33.5466 23.1409C33.4108 23.1409 33.2751 23.1409 33.1352 23.1409C33.1675 23.2438 33.1999 23.3467 33.2332 23.4527C33.5333 24.7863 33.6511 26.3952 32.9038 27.5984C32.0839 28.6343 31.1893 29.3565 29.8441 29.6605C29.527 29.6775 29.2099 29.6939 28.8927 29.7099C28.4176 29.74 28.4176 29.74 27.9928 29.8581C27.5221 30.3962 27.5221 30.3962 27.1701 31.0434C26.369 31.8388 25.5147 32.3524 24.3627 32.4927C22.7509 32.5149 21.9067 32.2583 20.7036 31.1916C20.5445 31.0205 20.5445 31.0205 20.3822 30.8459C19.8715 31.0639 19.4846 31.2984 19.0451 31.6361C17.9544 32.4743 17.0889 32.5222 15.7074 32.5028C14.5146 32.3674 13.7822 31.8402 12.9772 31.0187C12.7715 30.6483 12.7715 30.6483 12.7715 30.0556C13.3114 29.7963 13.3114 29.7963 14.0056 29.6605C14.3128 29.8978 14.619 30.1375 14.904 30.399C15.539 30.8704 16.0916 30.8459 16.8854 30.8459C17.7174 30.5846 18.3223 30.2182 18.7929 29.4907C19.0064 28.8864 19.006 28.3086 19.0323 27.6725C19.1001 26.1673 19.1001 26.1673 19.6365 25.6475C20.1765 25.3141 20.1765 25.3141 20.7935 25.1165C20.8051 25.4493 20.8051 25.4493 20.8168 25.7887C20.7828 28.1442 20.7828 28.1442 21.6163 30.2532C22.55 30.785 23.5106 30.9415 24.5732 30.7347C25.4463 30.4022 25.927 30.0727 26.3473 29.2654C26.4499 28.2795 26.4681 27.8747 25.923 27.0181C25.2132 26.4088 24.7965 26.2771 23.879 26.1044C23.8702 25.7752 23.8706 25.4457 23.879 25.1165C24.0847 24.919 24.0847 24.919 24.4591 24.9012C25.5654 24.9715 26.2574 25.1867 27.0656 25.9269C27.6022 26.5757 27.9097 27.3047 28.1985 28.08C29.3985 28.0298 30.2025 27.9588 31.0782 27.0922C31.6501 26.2682 31.757 25.5143 31.6053 24.5362C31.5481 24.3345 31.5481 24.3345 31.4896 24.1287C30.8108 24.0635 30.1321 23.9983 29.4327 23.9312C29.3309 24.2245 29.3309 24.2245 29.227 24.5238C28.8876 24.4587 28.5482 24.3935 28.1985 24.3263C28.2081 24.1809 28.2176 24.0354 28.2275 23.8856C28.284 22.6789 28.284 22.6789 27.8771 21.5604C27.2543 21.0696 26.6916 20.8378 25.9359 20.5726C26.0038 20.2466 26.0717 19.9206 26.1416 19.5848C26.8125 19.3763 27.1171 19.3681 27.7871 19.6095C28.4386 20.0005 28.9129 20.4268 29.4327 20.9677C29.5684 21.0981 29.7042 21.2285 29.8441 21.3628C29.9726 21.7827 29.9726 21.7827 30.0498 22.1531C31.489 22.2257 31.489 22.2257 32.7238 21.5604C33.4931 20.7159 33.6192 19.943 33.6044 18.8524C33.5134 18.1397 33.2246 17.734 32.7238 17.214C32.2238 16.9697 32.2238 16.9697 31.6953 17.0164C31.4169 17.2086 31.1427 17.4064 30.8725 17.6091C30.3326 17.6709 30.3326 17.6709 29.8441 17.6091C29.6404 17.4135 29.6404 17.4135 29.4327 17.214C29.4455 16.8312 29.4455 16.8312 29.6384 16.4238C30.4979 15.8311 30.4979 15.8311 31.0782 15.8311C31.505 14.7808 31.6626 13.8442 31.3354 12.7441C31.2839 12.2749 31.2839 12.2749 31.6568 11.7193C31.8052 11.5767 31.9537 11.434 32.1067 11.2871Z" fill="#013E7F"/>
<path d="M15.1334 40.2971C15.4948 40.2943 15.4948 40.2943 15.8635 40.2914C16.2572 40.2901 16.2572 40.2901 16.6589 40.2888C16.9265 40.2877 17.1941 40.2866 17.4698 40.2854C18.0374 40.2833 18.6049 40.2822 19.1724 40.2815C19.8999 40.2804 20.6272 40.2757 21.3547 40.27C22.0478 40.2655 22.7408 40.2651 23.4339 40.2641C23.6956 40.2617 23.9572 40.2592 24.2267 40.2567C24.469 40.2573 24.7113 40.2579 24.9609 40.2585C25.1745 40.2578 25.3881 40.2571 25.6081 40.2563C26.1417 40.329 26.1417 40.329 26.5264 40.5981C26.7588 40.9216 26.7588 40.9216 26.7202 41.4279C26.5531 41.9095 26.5531 41.9095 26.1417 42.3046C25.6435 42.3561 25.6435 42.3561 25.0096 42.3588C24.7728 42.3607 24.536 42.3626 24.292 42.3646C24.0351 42.3644 23.7782 42.3642 23.5135 42.364C23.1193 42.3653 23.1193 42.3653 22.7172 42.3666C22.1606 42.3677 21.604 42.368 21.0474 42.3669C20.334 42.3658 19.6207 42.3691 18.9073 42.3737C18.2272 42.3773 17.5471 42.3766 16.867 42.3764C16.6105 42.3782 16.354 42.38 16.0898 42.3819C15.8523 42.3806 15.6148 42.3794 15.3701 42.3781C15.1608 42.3783 14.9515 42.3784 14.7358 42.3785C14.2114 42.3046 14.2114 42.3046 13.8273 42.0422C13.5944 41.7119 13.5944 41.7119 13.6458 41.0945C13.9 40.1585 14.1799 40.3031 15.1334 40.2971Z" fill="#013E7F"/>
<path d="M14.5132 43.2435C14.7266 43.2438 14.9401 43.2441 15.16 43.2444C15.4016 43.2438 15.6432 43.2432 15.8921 43.2426C16.1542 43.244 16.4162 43.2454 16.6862 43.2469C17.0879 43.247 17.0879 43.247 17.4977 43.2471C18.0649 43.2474 18.6321 43.2491 19.1992 43.2517C19.9269 43.2551 20.6545 43.2558 21.3822 43.2557C22.0752 43.2558 22.7682 43.2575 23.4612 43.2592C23.8543 43.2595 23.8543 43.2595 24.2553 43.2599C24.4969 43.2611 24.7385 43.2624 24.9875 43.2637C25.3076 43.2648 25.3076 43.2648 25.6343 43.266C26.1417 43.2924 26.1417 43.2924 26.5531 43.49C26.5618 43.885 26.5615 44.2803 26.5531 44.6753C26.1896 45.0245 25.6679 44.8981 25.1755 44.8985C24.925 44.8991 24.6744 44.8997 24.4163 44.9003C24.1408 44.9 23.8653 44.8996 23.5898 44.8991C23.3093 44.8993 23.0287 44.8995 22.7482 44.8997C22.1596 44.9 21.571 44.8996 20.9824 44.8987C20.2263 44.8975 19.4703 44.8982 18.7142 44.8994C18.1347 44.9001 17.5552 44.8998 16.9758 44.8993C16.6969 44.8992 16.4181 44.8994 16.1392 44.8998C15.7501 44.9003 15.361 44.8994 14.9719 44.8985C14.6392 44.8982 14.6392 44.8982 14.2997 44.898C13.8 44.8729 13.8 44.8729 13.5944 44.6753C13.5558 44.1938 13.5558 44.1938 13.5944 43.6875C14.0057 43.2924 14.0057 43.2924 14.5132 43.2435Z" fill="#013E7F"/>
<path d="M16.4736 46.0583C18.8494 46.0583 21.2252 46.0583 23.6729 46.0583C23.2392 47.0998 22.8284 47.7568 21.759 48.2546C20.632 48.6092 19.3427 48.6619 18.2317 48.2353C17.5145 47.8208 16.8746 47.3731 16.4736 46.651C16.4736 46.4554 16.4736 46.2598 16.4736 46.0583Z" fill="#013E7F"/>
</svg>
