<svg width="30" height="30" viewBox="0 0 30 30" fill="none" xmlns="http://www.w3.org/2000/svg">
<mask id="mask0_90_92" style="mask-type:alpha" maskUnits="userSpaceOnUse" x="0" y="0" width="30" height="30">
<rect x="0.5" y="0.5" width="29" height="29" fill="#D9D9D9" stroke="#BE7352"/>
</mask>
<g mask="url(#mask0_90_92)">
<path d="M4.5 19.25V23H25.5V19.25H27V22.5C27 23.0538 26.8087 23.5155 26.4121 23.9121C26.0155 24.3087 25.5538 24.5 25 24.5H5C4.44616 24.5 3.98445 24.3087 3.58789 23.9121C3.19133 23.5155 3 23.0538 3 22.5V19.25H4.5ZM17.5 9.3125C17.6587 9.3125 17.8076 9.34455 17.9512 9.40918C18.037 9.44785 18.1106 9.51393 18.1699 9.64453L18.1738 9.65234L18.1777 9.66113L20.334 13.9736L20.4727 14.25H27V15.75H20C19.8583 15.75 19.7223 15.7152 19.585 15.6396C19.4768 15.5802 19.3924 15.4926 19.3301 15.3555L19.3262 15.3477L19.3223 15.3389L17.5 11.6943L13.1777 20.3389L13.1738 20.3477L13.1699 20.3555C13.1076 20.4926 13.0232 20.5802 12.915 20.6396C12.7777 20.7152 12.6417 20.75 12.5 20.75C12.3583 20.75 12.2223 20.7152 12.085 20.6396C11.9768 20.5802 11.8924 20.4926 11.8301 20.3555L11.8262 20.3477L11.8223 20.3389L9.66602 16.0264L9.52734 15.75H3V14.25H10C10.1417 14.25 10.2777 14.2848 10.415 14.3604C10.5232 14.4198 10.6076 14.5074 10.6699 14.6445L10.6738 14.6523L10.6777 14.6611L12.5 18.3057L16.8223 9.66113L16.8262 9.65234L16.8301 9.64453C16.8894 9.51393 16.963 9.44785 17.0488 9.40918C17.1924 9.34455 17.3413 9.3125 17.5 9.3125ZM5 5.5H25C25.5538 5.5 26.0155 5.69133 26.4121 6.08789C26.8087 6.48445 27 6.94616 27 7.5V10.75H25.5V7H4.5V10.75H3V7.5C3 6.94616 3.19133 6.48445 3.58789 6.08789C3.98445 5.69133 4.44616 5.5 5 5.5Z" fill="#212D4F" stroke="#BE7352"/>
</g>
</svg>
