<svg width="50" height="50" viewBox="0 0 50 50" fill="none" xmlns="http://www.w3.org/2000/svg">
<mask id="mask0_128_476" style="mask-type:alpha" maskUnits="userSpaceOnUse" x="0" y="0" width="50" height="50">
<rect x="0.5" y="0.5" width="49" height="49" fill="#D9D9D9" stroke="#BE7352"/>
</mask>
<g mask="url(#mask0_128_476)">
<path d="M7.83398 31.8682V37.9678H42.167V31.8682H45.334V37.4678C45.334 38.4484 44.9823 39.2781 44.2607 39.9824C43.5387 40.6872 42.683 41.0352 41.667 41.0352H8.33398C7.31794 41.0352 6.4623 40.6872 5.74023 39.9824C5.01861 39.278 4.66699 38.4485 4.66699 37.4678V31.8682H7.83398ZM29.167 15.7021C29.4802 15.7021 29.7762 15.7642 30.0596 15.8887C30.2858 15.988 30.4619 16.157 30.5889 16.4297L30.5928 16.4385L30.5967 16.4463L34.1904 23.4619L34.3301 23.7344H45.334V26.8008H33.334C33.0373 26.8008 32.7534 26.7296 32.4766 26.5811C32.2289 26.4481 32.0423 26.251 31.9121 25.9717L31.9082 25.9629L31.9033 25.9551L29.6123 21.4814L29.167 20.6123L28.7217 21.4814L22.2637 34.0889L22.2598 34.0967L22.2559 34.1055C22.1258 34.3848 21.939 34.5818 21.6914 34.7148C21.4146 34.8634 21.1306 34.9345 20.834 34.9346C20.5373 34.9346 20.2534 34.8634 19.9766 34.7148C19.7289 34.5819 19.5423 34.3848 19.4121 34.1055L19.4082 34.0967L19.4033 34.0889L15.8096 27.0732L15.6709 26.8008H4.66699V23.7344H16.667C16.9637 23.7344 17.2475 23.8054 17.5244 23.9541C17.7721 24.0871 17.9587 24.284 18.0889 24.5635L18.0928 24.5723L18.0967 24.5801L20.3887 29.0537L20.834 29.9229L21.2783 29.0537L27.7373 16.4463L27.7412 16.4385L27.7451 16.4297C27.8721 16.157 28.0482 15.988 28.2744 15.8887C28.5578 15.7642 28.8538 15.7021 29.167 15.7021ZM8.33398 9.5H41.667C42.683 9.5 43.5387 9.84796 44.2607 10.5527C44.9821 11.257 45.3339 12.086 45.334 13.0664V18.667H42.167V12.5664H7.83398V18.667H4.66699V13.0664C4.66711 12.0859 5.01874 11.257 5.74023 10.5527C6.4623 9.84796 7.31794 9.5 8.33398 9.5Z" fill="#FCFCFC" stroke="#FCFCFC"/>
</g>
</svg>
