<svg width="50" height="50" viewBox="0 0 50 50" fill="none" xmlns="http://www.w3.org/2000/svg">
<mask id="mask0_90_54" style="mask-type:alpha" maskUnits="userSpaceOnUse" x="0" y="0" width="50" height="50">
<rect x="0.5" y="0.5" width="49" height="49" fill="#D9D9D9" stroke="#BE7352"/>
</mask>
<g mask="url(#mask0_90_54)">
<path d="M7.83301 31.7502V38.0002H42.166V31.7502H45.333V37.5002C45.3329 38.5123 44.9778 39.3662 44.2549 40.0891C43.532 40.812 42.6781 41.1663 41.666 41.1663H8.33301C7.32084 41.1663 6.46612 40.8121 5.74316 40.0891C5.0204 39.3663 4.66609 38.5122 4.66602 37.5002V31.7502H7.83301ZM29.166 15.1877C29.4774 15.1877 29.7722 15.251 30.0547 15.3782C30.2793 15.4793 30.4571 15.6525 30.5859 15.9358L30.5898 15.9446L34.1875 23.1399L34.3262 23.4163H45.333V26.5833H33.333C33.0385 26.5833 32.7558 26.5106 32.4795 26.3586C32.2327 26.2228 32.0448 26.0204 31.9131 25.7307L31.9092 25.7219L29.166 20.2356L28.7188 21.1301L22.2607 34.0471L22.2559 34.0559L22.2529 34.0637C22.1212 34.3536 21.9324 34.5558 21.6855 34.6917C21.4094 34.8435 21.1274 34.9162 20.833 34.9163C20.5385 34.9163 20.2558 34.8436 19.9795 34.6917C19.7327 34.5558 19.5448 34.3535 19.4131 34.0637L19.4092 34.0559L19.4053 34.0471L15.8115 26.8596L15.6729 26.5833H4.66602V23.4163H16.666C16.9604 23.4163 17.2424 23.489 17.5186 23.6409C17.7656 23.7767 17.9541 23.9798 18.0859 24.2698L18.0898 24.2776L18.0938 24.2864L20.3857 28.8694L20.833 29.7639L21.2803 28.8694L27.7383 15.9524L27.7422 15.9446L27.7461 15.9358C27.8749 15.6525 28.0527 15.4793 28.2773 15.3782C28.5599 15.251 28.8546 15.1877 29.166 15.1877ZM8.33301 8.83325H41.666C42.678 8.83325 43.532 9.18767 44.2549 9.9104C44.9778 10.6334 45.333 11.4881 45.333 12.5002V18.2502H42.166V12.0002H7.83301V18.2502H4.66602V12.5002C4.66602 11.4881 5.02021 10.6334 5.74316 9.9104C6.46612 9.18745 7.32084 8.83325 8.33301 8.83325Z" fill="#212D4F" stroke="#BE7352"/>
</g>
</svg>
