<svg width="25" height="25" viewBox="0 0 25 25" fill="none" xmlns="http://www.w3.org/2000/svg">
<path d="M12.5 0.5C14.164 0.5 15.7213 0.815332 17.1768 1.44336C18.642 2.07562 19.9117 2.93128 20.9902 4.00977C22.0687 5.08825 22.9244 6.35801 23.5566 7.82324C24.1847 9.27873 24.5 10.836 24.5 12.5C24.5 14.164 24.1847 15.7213 23.5566 17.1768C22.9244 18.642 22.0687 19.9117 20.9902 20.9902C19.9117 22.0687 18.642 22.9244 17.1768 23.5566C15.7213 24.1847 14.164 24.5 12.5 24.5C10.836 24.5 9.27873 24.1847 7.82324 23.5566C6.35801 22.9244 5.08825 22.0687 4.00977 20.9902C2.93128 19.9117 2.07562 18.642 1.44336 17.1768C0.815332 15.7213 0.5 14.164 0.5 12.5C0.5 10.836 0.815332 9.27873 1.44336 7.82324C2.07562 6.35801 2.93128 5.08825 4.00977 4.00977C5.08825 2.93128 6.35801 2.07562 7.82324 1.44336C9.27873 0.815332 10.836 0.5 12.5 0.5ZM12.5 2C9.57853 2 7.08597 3.0195 5.05273 5.05273C3.0195 7.08597 2 9.57853 2 12.5C2 15.4215 3.0195 17.914 5.05273 19.9473C7.08597 21.9805 9.57853 23 12.5 23C13.7196 23 14.8756 22.8095 15.9639 22.4248C17.0453 22.0424 18.0356 21.5008 18.9326 20.8008L19.3779 20.4521L16.8955 17.9697L16.5508 18.2197C15.9908 18.6252 15.3657 18.9409 14.6738 19.165C13.9863 19.3877 13.2625 19.5 12.5 19.5C10.5478 19.5 8.90452 18.8225 7.54102 17.459C6.17752 16.0955 5.5 14.4522 5.5 12.5C5.5 10.5478 6.17752 8.90452 7.54102 7.54102C8.90452 6.17752 10.5478 5.5 12.5 5.5C14.4522 5.5 16.0955 6.17752 17.459 7.54102C18.8225 8.90452 19.5 10.5478 19.5 12.5C19.5 13.2603 19.3829 13.9879 19.1504 14.6855C18.9155 15.3901 18.5944 16.0215 18.1885 16.582L17.9385 16.9268L20.4209 19.4092L20.7695 18.9639C21.4694 18.0671 22.0157 17.0718 22.4082 15.9814C22.8037 14.8827 23 13.7211 23 12.5C23 9.57853 21.9805 7.08597 19.9473 5.05273C17.914 3.0195 15.4215 2 12.5 2ZM12.5 7C10.9913 7 9.68742 7.54305 8.61523 8.61523C7.54305 9.68742 7 10.9913 7 12.5C7 14.0087 7.54305 15.3126 8.61523 16.3848C9.68742 17.457 10.9913 18 12.5 18C13.0005 18 13.4871 17.9379 13.958 17.8115C14.4309 17.6846 14.876 17.4935 15.292 17.2393L15.834 16.9082L13.2451 14.3193L12.9395 14.4424C12.8757 14.4679 12.817 14.4819 12.7627 14.4873C12.675 14.4961 12.5874 14.5 12.5 14.5C11.9462 14.5 11.4845 14.3087 11.0879 13.9121C10.6913 13.5155 10.5 13.0538 10.5 12.5C10.5 11.9462 10.6913 11.4845 11.0879 11.0879C11.4845 10.6913 11.9462 10.5 12.5 10.5C13.0538 10.5 13.5155 10.6913 13.9121 11.0879C14.3087 11.4845 14.5 11.9462 14.5 12.5C14.5 12.6112 14.4953 12.7161 14.4863 12.8145C14.4802 12.8819 14.4656 12.944 14.4424 13.002L14.3193 13.3076L16.877 15.8652L17.208 15.3232C17.4604 14.9103 17.6548 14.4687 17.792 14C17.9313 13.5239 18 13.0231 18 12.5C18 10.9913 17.457 9.68742 16.3848 8.61523C15.3126 7.54305 14.0087 7 12.5 7Z" fill="#212D4F" stroke="#BE7352"/>
</svg>
