<svg width="50" height="50" viewBox="0 0 50 50" fill="none" xmlns="http://www.w3.org/2000/svg">
<mask id="mask0_90_31" style="mask-type:alpha" maskUnits="userSpaceOnUse" x="0" y="0" width="50" height="50">
<rect x="0.5" y="0.5" width="49" height="49" fill="#212D4F" stroke="#BE7352"/>
</mask>
<g mask="url(#mask0_90_31)">
<path d="M32.6055 6.75L43.25 17.3945V32.6055L32.6055 43.25H17.3945L6.75 32.6055V17.3945L17.3945 6.75H32.6055ZM25 31.75C25.4643 31.75 25.83 31.9013 26.1309 32.2021C26.4317 32.503 26.5829 32.8688 26.583 33.333C26.583 33.7973 26.4317 34.163 26.1309 34.4639C25.83 34.7648 25.4644 34.917 25 34.917C24.5356 34.917 24.17 34.7648 23.8691 34.4639C23.5683 34.163 23.417 33.7973 23.417 33.333C23.4171 32.8688 23.5683 32.503 23.8691 32.2021C24.17 31.9013 24.5357 31.75 25 31.75ZM26.583 15.083V26.583H23.417V15.083H26.583ZM40.083 18.751L31.249 9.91699H18.751L9.91699 18.751V31.249L18.751 40.083H31.249L40.083 31.249V18.751Z" fill="#212D4F" stroke="#BE7352"/>
</g>
</svg>
