<svg width="50" height="50" viewBox="0 0 50 50" fill="none" xmlns="http://www.w3.org/2000/svg">
<mask id="mask0_90_48" style="mask-type:alpha" maskUnits="userSpaceOnUse" x="0" y="0" width="50" height="50">
<rect x="0.5" y="0.5" width="49" height="49" fill="#D9D9D9" stroke="#BE7352"/>
</mask>
<g mask="url(#mask0_90_48)">
<path d="M10.417 6.75H31.043L43.25 18.957V39.583C43.25 40.5952 42.8958 41.4499 42.1729 42.1729C41.4499 42.8958 40.5952 43.25 39.583 43.25H10.417C9.40482 43.25 8.5501 42.8958 7.82715 42.1729C7.1042 41.4499 6.75 40.5952 6.75 39.583V10.417C6.75 9.40482 7.1042 8.5501 7.82715 7.82715C8.5501 7.1042 9.40482 6.75 10.417 6.75ZM34.917 31.75V34.917H15.083V31.75H34.917ZM34.917 23.417V26.583H15.083V23.417H34.917ZM28.667 15.083V18.25H15.083V15.083H28.667ZM40.083 20.2617L29.7383 9.91699H9.91699V40.083H40.083V20.2617Z" fill="#1C1B1F" stroke="#BE7352"/>
</g>
</svg>
